<svg width="600" height="471" viewBox="0 0 600 471" fill="none" xmlns="http://www.w3.org/2000/svg">
<path fill-rule="evenodd" clip-rule="evenodd" d="M216.532 26.4039C216.532 40.9864 204.415 52.8078 189.468 52.8078C174.521 52.8078 162.404 40.9864 162.404 26.4039C162.404 11.8214 174.521 0 189.468 0C204.415 0 216.532 11.8214 216.532 26.4039ZM155.227 77.0647C152.579 72.3164 147.611 63.7372 143.261 58.0888C137.918 51.1508 128.353 41.0198 116.857 32.345C110.008 27.1763 98.3744 20.4633 98.3744 20.4633C98.3744 20.4633 94.3899 18.2569 93.0937 15.8426C91.6253 13.1077 91.386 10.8435 92.4336 7.92143C93.3583 5.34191 94.6223 3.90357 97.0542 2.64065C99.5811 1.3284 102.335 1.49031 104.315 1.98055C106.296 2.4708 121.621 10.8667 131.379 18.483C140.433 25.5494 145.148 30.1243 152.502 38.946C158.912 46.6351 167.025 60.0691 167.025 60.0691H211.251C211.251 60.0691 221.684 46.8129 229.074 38.9459C235.939 31.6374 239.822 27.5046 247.556 21.1233C257.153 13.2061 269.34 4.62088 273.96 3.30069C278.581 1.98049 282.187 1.98947 285.182 5.28098C288.478 8.90374 287.822 15.1824 285.182 17.8228C284.04 18.9647 281.132 20.6844 277.521 22.8196L277.52 22.8197C272.781 25.6218 266.832 29.1394 262.079 33.0051C253.688 39.8278 249.59 44.489 242.518 52.5326L242.276 52.808C235.725 60.2577 227.628 71.7037 223.781 77.2689V261.758C223.781 282.852 219.289 301.146 210.305 316.641C201.32 332.005 188.43 343.724 171.633 351.797C154.836 359.87 134.979 363.906 112.062 363.906C77.4271 363.906 50.1484 354.922 30.2265 336.953C15.4496 323.625 6.04555 306.643 2.0144 286.008L69.1281 271.418C71.7961 297.921 86.1076 311.172 112.062 311.172C126.255 311.172 136.997 307.266 144.289 299.453C151.581 291.641 155.227 278.945 155.227 261.367V77.0647ZM0 210.141L42.7969 217.969L0 227.484V241.453L42.7969 250.828L0 258.656V275.016L68.25 260.484V243.469L29.3438 234.516L68.25 225.375V208.312L0 193.828V210.141ZM55.5 173.25V150.703L68.25 146.719V129.047L0 154.266V169.734L68.25 194.766V177.188L55.5 173.25ZM42.7969 154.641V169.312L19.125 162L42.7969 154.641ZM50.25 107.578L42.8438 100.828L68.25 86.2969V66.7969L30.1875 89.8594L0 66.7969V87.1406L21.4219 101.859L30.0938 107.578H0V124.031H68.25V107.578H50.25ZM39.3281 46.1719V20.2969H27.0938V46.1719H12.7031V15.5156H0V62.625H68.25V15.6094H55.5938V46.1719H39.3281ZM482.729 261.886C482.729 298.8 474.38 328.316 457.681 350.436C441.128 372.408 418.716 383.395 390.444 383.395C368.618 383.395 350.674 375.411 336.611 359.444V470.406H262.563V141.256H331.777L333.975 163.229C348.184 145.65 366.86 136.861 390.005 136.861C419.302 136.861 442.08 147.701 458.34 169.381C474.6 190.914 482.729 220.577 482.729 258.37V261.886ZM408.682 257.271C408.682 215.084 396.377 193.99 371.768 193.99C354.189 193.99 342.471 200.289 336.611 212.887V306.49C343.057 319.674 354.922 326.266 372.207 326.266C395.791 326.266 407.949 305.904 408.682 265.182V257.271ZM589.077 277.706H529.092L519.644 59.0781H598.525L589.077 277.706ZM517.446 345.821C517.446 334.981 521.328 326.119 529.092 319.234C537.002 312.203 546.816 308.688 558.535 308.688C570.254 308.688 579.995 312.203 587.759 319.234C595.669 326.119 599.624 334.981 599.624 345.821C599.624 356.661 595.669 365.597 587.759 372.628C579.995 379.513 570.254 382.955 558.535 382.955C546.816 382.955 537.002 379.513 529.092 372.628C521.328 365.597 517.446 356.661 517.446 345.821Z" fill="#161D6F"/>
</svg>
