<svg width="2424" height="412" viewBox="0 0 2424 412" fill="none" xmlns="http://www.w3.org/2000/svg">
<path fill-rule="evenodd" clip-rule="evenodd" d="M304.102 0L267.407 200.61L222.803 0H157.324L113.379 200.61L76.6846 0H0L68.1152 319.922H147.876L189.844 137.549L232.69 319.922H312.671L380.566 0H304.102ZM477.026 260.156H582.715L601.392 319.922H684.229L566.016 0H493.506L376.172 319.922H458.569L477.026 260.156ZM564.258 200.61H495.483L529.761 89.6484L564.258 200.61ZM784.863 235.547L816.504 200.83L884.619 319.922H976.025L867.92 141.504L976.025 0H880.664L811.67 100.415L784.863 141.064V0H707.739V319.922H784.863V235.547ZM1072.71 184.351H1193.99V127.002H1072.71V59.5459H1216.41V0H995.581V319.922H1215.97V260.596H1072.71V184.351ZM2040.48 0V209.399C2040.48 233.13 2035.43 253.711 2025.32 271.143C2015.21 288.428 2000.71 301.611 1981.82 310.693C1962.92 319.775 1940.58 324.316 1914.8 324.316C1875.83 324.316 1845.15 314.209 1822.73 293.994C1800.32 273.779 1788.9 246.094 1788.46 210.938V0H1866.02V212.476C1866.9 247.485 1883.16 264.99 1914.8 264.99C1930.77 264.99 1942.85 260.596 1951.05 251.807C1959.26 243.018 1963.36 228.735 1963.36 208.96V0H2040.48ZM2306.13 202.808C2306.13 239.722 2297.78 269.238 2281.08 291.357C2264.53 313.33 2242.12 324.316 2213.85 324.316C2192.02 324.316 2174.08 316.333 2160.01 300.366V411.328H2085.97V82.1777H2155.18L2157.38 104.15C2171.59 86.5723 2190.26 77.7832 2213.41 77.7832C2242.71 77.7832 2265.48 88.623 2281.74 110.303C2298 131.836 2306.13 161.499 2306.13 199.292V202.808ZM2232.08 198.193C2232.08 156.006 2219.78 134.912 2195.17 134.912C2177.59 134.912 2165.87 141.211 2160.01 153.809V247.412C2166.46 260.596 2178.33 267.188 2195.61 267.188C2219.19 267.188 2231.35 246.826 2232.08 206.104V198.193ZM2412.48 218.628H2352.5L2343.05 0H2421.93L2412.48 218.628ZM2340.85 286.743C2340.85 275.903 2344.73 267.041 2352.5 260.156C2360.41 253.125 2370.22 249.609 2381.94 249.609C2393.66 249.609 2403.4 253.125 2411.16 260.156C2419.07 267.041 2423.03 275.903 2423.03 286.743C2423.03 297.583 2419.07 306.519 2411.16 313.55C2403.4 320.435 2393.66 323.877 2381.94 323.877C2370.22 323.877 2360.41 320.435 2352.5 313.55C2344.73 306.519 2340.85 297.583 2340.85 286.743ZM1494.05 131.035C1530.88 131.035 1560.74 101.908 1560.74 65.9784C1560.74 30.0487 1530.88 0.921875 1494.05 0.921875C1457.23 0.921875 1427.37 30.0487 1427.37 65.9784C1427.37 101.908 1457.23 131.035 1494.05 131.035ZM1380.21 144.047C1395.69 164.157 1414.36 199.345 1414.36 199.345V331.085H1573.1V199.345C1573.1 199.345 1602.17 156.048 1624.17 131.036L1624.76 130.356C1642.19 110.538 1652.29 99.0534 1672.96 82.2432C1684.67 72.7183 1699.33 64.0513 1711.01 57.1472C1719.9 51.8864 1727.07 47.6491 1729.88 44.8357C1736.39 38.33 1738.01 22.86 1729.88 13.9338C1722.51 5.82391 1713.62 5.80178 1702.23 9.05461C1690.85 12.3074 1660.82 33.4606 1637.18 52.9678C1618.12 68.6906 1608.55 78.8733 1591.64 96.8809C1573.43 116.264 1547.73 148.926 1547.73 148.926H1438.76C1438.76 148.926 1418.77 115.826 1402.97 96.8811C1384.85 75.1453 1373.24 63.8731 1350.93 46.4623C1326.89 27.6964 1289.13 7.00985 1284.25 5.80194C1279.37 4.59403 1272.58 4.1951 1266.36 7.42835C1260.36 10.5401 1257.25 14.084 1254.97 20.4397C1252.39 27.6392 1252.98 33.2182 1256.6 39.9566C1259.79 45.9052 1269.61 51.3415 1269.61 51.3415C1269.61 51.3415 1298.27 67.8818 1315.15 80.6169C1343.47 101.991 1367.04 126.952 1380.21 144.047Z" fill="#161D6F"/>
</svg>
