<svg width="586" height="464" viewBox="0 0 586 464" fill="none" xmlns="http://www.w3.org/2000/svg">
<g filter="url(#filter0_d)">
<path fill-rule="evenodd" clip-rule="evenodd" d="M211.39 29.9217C211.39 43.6856 199.952 54.8435 185.844 54.8435C171.735 54.8435 160.297 43.6856 160.297 29.9217C160.297 16.1578 171.735 5 185.844 5C199.952 5 211.39 16.1578 211.39 29.9217ZM153.523 77.7387C151.023 73.257 146.334 65.1593 142.228 59.828C137.184 53.2795 128.156 43.7172 117.304 35.5293C110.839 30.6508 99.858 24.3146 99.858 24.3146C99.858 24.3146 96.097 22.2321 94.8735 19.9533C93.4874 17.3719 93.2615 15.2348 94.2504 12.4768C95.1232 10.042 96.3163 8.68445 98.6119 7.49242C100.997 6.25383 103.597 6.40665 105.466 6.86937C107.335 7.3321 121.801 15.2567 131.012 22.4455C139.558 29.1152 144.009 33.4333 150.95 41.7598C157.001 49.0173 164.659 61.6971 164.659 61.6971H206.405C206.405 61.6971 216.253 49.1851 223.229 41.7597C229.709 34.8614 233.374 30.9606 240.674 24.9376C249.733 17.4648 261.237 9.36149 265.598 8.11541C269.96 6.86932 273.363 6.87779 276.19 9.98453C279.302 13.4039 278.682 19.3301 276.19 21.8223C275.112 22.9001 272.367 24.5233 268.959 26.5386L268.958 26.5387C264.485 29.1835 258.869 32.5037 254.383 36.1524C246.462 42.5921 242.594 46.9916 235.919 54.5837L235.69 54.8436C229.507 61.8752 221.864 72.6786 218.232 77.9314V252.064C218.232 271.974 213.992 289.241 205.512 303.867C197.031 318.368 184.864 329.429 169.009 337.049C153.154 344.669 134.41 348.478 112.778 348.478C80.0854 348.478 54.3363 339.999 35.5315 323.038C21.5833 310.458 12.7065 294.43 8.90144 274.953L72.2517 261.182C74.7701 286.197 88.2791 298.705 112.778 298.705C126.175 298.705 136.315 295.018 143.198 287.643C150.081 280.27 153.523 268.287 153.523 251.695V77.7387ZM7 203.345L47.3971 210.733L7 219.714V232.899L47.3971 241.748L7 249.136V264.578L71.4229 250.862V234.802L34.6983 226.352L71.4229 217.724V201.619L7 187.948V203.345ZM59.3878 168.525V147.243L71.4229 143.483V126.803L7 150.606V165.206L71.4229 188.833V172.242L59.3878 168.525ZM47.3971 150.96V164.808L25.0526 157.906L47.3971 150.96ZM54.4322 106.539L47.4413 100.168L71.4229 86.4527V68.0473L35.4947 89.8152L7 68.0473V87.249L27.2207 101.141L35.4063 106.539H7V122.069H71.4229V106.539H54.4322ZM44.1228 48.5801V24.1575H32.5745V48.5801H18.9908V19.6446H7V64.1096H71.4229V19.7332H59.4764V48.5801H44.1228ZM462.66 252.185C462.66 287.027 454.779 314.886 439.016 335.764C423.392 356.503 402.236 366.873 375.55 366.873C354.948 366.873 338.01 359.337 324.735 344.267V449H254.84V138.327H320.173L322.247 159.066C335.66 142.474 353.288 134.178 375.135 134.178C402.79 134.178 424.29 144.41 439.639 164.873C454.987 185.197 462.66 213.195 462.66 248.867V252.185ZM392.765 247.829C392.765 208.01 381.15 188.1 357.921 188.1C341.328 188.1 330.267 194.046 324.735 205.937V294.285C330.82 306.729 342.02 312.951 358.335 312.951C380.597 312.951 392.073 293.732 392.765 255.296V247.829ZM563.044 267.117H506.423L497.505 60.7618H571.963L563.044 267.117ZM495.43 331.409C495.43 321.177 499.094 312.812 506.423 306.314C513.89 299.678 523.153 296.36 534.215 296.36C545.277 296.36 554.472 299.678 561.8 306.314C569.267 312.812 573 321.177 573 331.409C573 341.64 569.267 350.074 561.8 356.711C554.472 363.209 545.277 366.458 534.215 366.458C523.153 366.458 513.89 363.209 506.423 356.711C499.094 350.074 495.43 341.64 495.43 331.409Z" fill="#F6F6F6"/>
</g>
<defs>
<filter id="filter0_d" x="0" y="0" width="586" height="464" filterUnits="userSpaceOnUse" color-interpolation-filters="sRGB">
<feFlood flood-opacity="0" result="BackgroundImageFix"/>
<feColorMatrix in="SourceAlpha" type="matrix" values="0 0 0 0 0 0 0 0 0 0 0 0 0 0 0 0 0 0 127 0"/>
<feOffset dx="3" dy="5"/>
<feGaussianBlur stdDeviation="5"/>
<feColorMatrix type="matrix" values="0 0 0 0 0 0 0 0 0 0 0 0 0 0 0 0 0 0 0.3 0"/>
<feBlend mode="normal" in2="BackgroundImageFix" result="effect1_dropShadow"/>
<feBlend mode="normal" in="SourceGraphic" in2="effect1_dropShadow" result="shape"/>
</filter>
</defs>
</svg>
